<svg xmlns="http://www.w3.org/2000/svg" version="1.1" xmlns:xlink="http://www.w3.org/1999/xlink" xmlns:svgjs="http://svgjs.dev/svgjs" width="2000" height="1247" viewBox="0 0 2000 1247"><g transform="matrix(1,0,0,1,-1.2121212121211329,0.504858299595071)"><svg viewBox="0 0 396 247" data-background-color="#ffffff" preserveAspectRatio="xMidYMid meet" height="1247" width="2000" xmlns="http://www.w3.org/2000/svg" xmlns:xlink="http://www.w3.org/1999/xlink"><g id="tight-bounds" transform="matrix(1,0,0,1,0.2400000000000091,-0.09999999999999432)"><svg viewBox="0 0 395.52 247.2" height="247.2" width="395.52"><g><svg></svg></g><g><svg viewBox="0 0 395.52 247.2" height="247.2" width="395.52"><g transform="matrix(1,0,0,1,75.54432000000001,63.51488535564854)"><svg viewBox="0 0 244.43135999999996 120.17022928870291" height="120.17022928870291" width="244.43135999999996"><g><svg viewBox="0 0 244.43135999999996 120.17022928870291" height="120.17022928870291" width="244.43135999999996"><g><svg viewBox="0 0 244.43135999999996 120.17022928870291" height="120.17022928870291" width="244.43135999999996"><g><svg viewBox="0 0 244.43135999999996 120.17022928870291" height="120.17022928870291" width="244.43135999999996"><g id="textblocktransform"><svg viewBox="0 0 244.43135999999996 120.17022928870291" height="120.17022928870291" width="244.43135999999996" id="textblock"><g><svg viewBox="0 0 244.43135999999996 120.17022928870291" height="120.17022928870291" width="244.43135999999996"><g transform="matrix(1,0,0,1,0,0)"><svg width="244.43135999999996" viewBox="3.9 -35.25 71.69999999999999 35.25" height="120.17022928870291" data-palette-color="#636365"><path d="M21.1-12.2L33.15-35.25 38.2-35.25 38.2 0 32.5 0 32.5-23.3 23.2-5.7 18.9-5.7 9.55-23.05 9.6 0 3.9 0 3.9-35.25 9-35.25 21.1-12.2ZM69.55-10.7L69.55-35.25 75.6-35.25 75.6 0 70.75 0 51.85-24.6 51.85 0 45.85 0 45.85-35.25 50.65-35.25 69.55-10.7Z" opacity="1" transform="matrix(1,0,0,1,0,0)" fill="#636365" class="wordmark-text-0" data-fill-palette-color="primary" id="text-0"></path></svg></g></svg></g></svg></g></svg></g></svg></g></svg></g></svg></g><g><path d="M0 123.6c0-68.262 55.338-123.6 123.6-123.6 40.388 0 76.252 19.372 98.807 49.33h-6.873c-21.666-26.785-54.8-43.912-91.934-43.911-65.27 0-118.181 52.912-118.181 118.181 0 65.27 52.912 118.181 118.181 118.181 37.134 0 70.268-17.127 91.934-43.911h6.873c-22.555 29.959-58.418 49.33-98.807 49.33-68.262 0-123.6-55.338-123.6-123.6z" fill="#636365" stroke="transparent" data-fill-palette-color="tertiary"></path></g></svg></g><defs></defs></svg><rect width="395.52" height="247.2" fill="none" stroke="none" visibility="hidden"></rect></g></svg></g></svg>